<svg width="57" height="91" xmlns="http://www.w3.org/2000/svg" xmlns:xlink="http://www.w3.org/1999/xlink" xml:space="preserve" overflow="hidden"><defs><clipPath id="clip0"><rect x="1028" y="501" width="57" height="91"/></clipPath><clipPath id="clip1"><rect x="1028" y="501" width="57" height="91"/></clipPath><clipPath id="clip2"><rect x="1029" y="502" width="56" height="90"/></clipPath><clipPath id="clip3"><rect x="1029" y="502" width="56" height="90"/></clipPath><clipPath id="clip4"><rect x="1029" y="502" width="56" height="90"/></clipPath></defs><g clip-path="url(#clip0)" transform="translate(-1028 -501)"><g clip-path="url(#clip1)"><g clip-path="url(#clip2)"><g clip-path="url(#clip3)"><g clip-path="url(#clip4)"><path d="M27.9545 89.5985 55.8977 50.5286 50.0613 13.1819 27.9151-2.00049e-15 5.83922 13.1847 1.10027e-14 50.5399Z" fill="#E22418" fill-rule="nonzero" fill-opacity="1" transform="matrix(1 0 0 1.00448 1029.05 502)"/><path d="M27.9545 86.4283 53.9719 50.0528 48.3889 14.3531 27.9151 2.16507 7.50877 14.3531 1.92857 50.0641Z" fill="#000000" fill-rule="nonzero" fill-opacity="1" transform="matrix(1 0 0 1.00448 1029.05 502)"/><path d="M19.1619 43.8476 22.8163 44.6275 27.0845 41.6403 26.0822 38.9459 23.1485 36.2656 18.6438 37.5973 17.0897 40.9533Z" fill="#FFFFFF" fill-rule="nonzero" fill-opacity="1" transform="matrix(1 0 0 1.00448 1029.05 502)"/><path d="M19.1224 28.8667 15.254 26.9719 14.9781 28.74 16.932 30.8572 19.8404 31.333 21.8478 34.5426 21.0707 28.6668Z" fill="#FFFFFF" fill-rule="nonzero" fill-opacity="1" transform="matrix(1 0 0 1.00448 1029.05 502)"/><path d="M25.384 44.6782 20.7723 47.3697 20.1698 51.1903 25.781 58.9918 27.8953 56.0328 30.0689 58.9975 35.6491 51.317 35.024 47.3838 30.5672 44.6782Z" fill="#FFFFFF" fill-rule="nonzero" fill-opacity="1" transform="matrix(1 0 0 1.00448 1029.05 502)"/><path d="M31.9158 27.2872 34.7537 25.536 42.8847 25.536 39.4668 20.2627 32.9462 16.3605 27.9038 19.3955 22.8416 16.3464 16.2986 20.2937 12.9229 25.536 20.9553 25.536 23.8974 27.2872 22.7769 34.5426 32.9603 34.5426Z" fill="#FFFFFF" fill-rule="nonzero" fill-opacity="1" transform="matrix(1 0 0 1.00448 1029.05 502)"/><path d="M36.9582 28.7203 34.0048 28.495 31.6652 31.4259 32.9153 34.5426 32.7238 36.2656 29.7732 38.9206 28.9962 41.6403 33.2644 44.6275 36.5782 43.9039 38.6925 40.9674 37.1328 37.6452 38.0478 34.5426 41.7895 31.5076 41.0237 26.6594Z" fill="#FFFFFF" fill-rule="nonzero" fill-opacity="1" transform="matrix(1 0 0 1.00448 1029.05 502)"/></g></g></g></g></g></svg>